<svg id="Capa_1" enable-background="new 0 0 512 512" height="512" viewBox="0 0 512 512" width="512" xmlns="http://www.w3.org/2000/svg"><g><path d="m0 31h60v150h-60z"/><path d="m452 331h60v150h-60z"/><path d="m226 181h60v150h-60z"/><path d="m45 301h151v-90h-151c-24.814 0-45 20.186-45 45s20.186 45 45 45z"/><path d="m467 211h-151v90h151c24.814 0 45-20.186 45-45s-20.186-45-45-45z"/><path d="m467 61h-377v90h377c24.814 0 45-20.186 45-45s-20.186-45-45-45z"/><path d="m45 451h377v-90h-377c-24.814 0-45 20.186-45 45s20.186 45 45 45z"/></g></svg>